<?xml version="1.0" encoding="UTF-8"?>
<svg xmlns="http://www.w3.org/2000/svg" width="960" height="540" viewBox="0 0 960 540">
<style>
text { font-family: -apple-system, BlinkMacSystemFont, 'Segoe UI', sans-serif; }
.title { font-size: 26px; font-weight: 700; fill: #1f2933; }
.axis-label { font-size: 14px; font-weight: 600; fill: #334155; }
.tick { font-size: 12px; fill: #64748b; }
.legend { font-size: 13px; font-weight: 600; fill: #1f2933; }
</style>
<rect width="960" height="540" fill="#ffffff"/>
<text class="title" x="480.0" y="34" text-anchor="middle">Record 20260515 072431 t/s</text>
<line x1="82" y1="468.00" x2="878" y2="468.00" stroke="#e2e8f0" stroke-width="1"/>
<text class="tick" x="70" y="472.00" text-anchor="end">0</text>
<line x1="82" y1="387.60" x2="878" y2="387.60" stroke="#e2e8f0" stroke-width="1"/>
<text class="tick" x="70" y="391.60" text-anchor="end">2k</text>
<line x1="82" y1="307.20" x2="878" y2="307.20" stroke="#e2e8f0" stroke-width="1"/>
<text class="tick" x="70" y="311.20" text-anchor="end">4k</text>
<line x1="82" y1="226.80" x2="878" y2="226.80" stroke="#e2e8f0" stroke-width="1"/>
<text class="tick" x="70" y="230.80" text-anchor="end">6k</text>
<line x1="82" y1="146.40" x2="878" y2="146.40" stroke="#e2e8f0" stroke-width="1"/>
<text class="tick" x="70" y="150.40" text-anchor="end">8k</text>
<line x1="82" y1="66.00" x2="878" y2="66.00" stroke="#e2e8f0" stroke-width="1"/>
<text class="tick" x="70" y="70.00" text-anchor="end">10k</text>
<text class="tick" x="890" y="472.00" text-anchor="start">0</text>
<text class="tick" x="890" y="391.60" text-anchor="start">2</text>
<text class="tick" x="890" y="311.20" text-anchor="start">4</text>
<text class="tick" x="890" y="230.80" text-anchor="start">6</text>
<text class="tick" x="890" y="150.40" text-anchor="start">8</text>
<text class="tick" x="890" y="70.00" text-anchor="start">10</text>
<line x1="82.00" y1="66" x2="82.00" y2="468" stroke="#e2e8f0" stroke-width="1"/>
<text class="tick" x="82.00" y="492" text-anchor="middle">0</text>
<line x1="332.76" y1="66" x2="332.76" y2="468" stroke="#e2e8f0" stroke-width="1"/>
<text class="tick" x="332.76" y="492" text-anchor="middle">20k</text>
<line x1="583.51" y1="66" x2="583.51" y2="468" stroke="#e2e8f0" stroke-width="1"/>
<text class="tick" x="583.51" y="492" text-anchor="middle">40k</text>
<line x1="834.27" y1="66" x2="834.27" y2="468" stroke="#e2e8f0" stroke-width="1"/>
<text class="tick" x="834.27" y="492" text-anchor="middle">60k</text>
<line x1="82" y1="66" x2="82" y2="468" stroke="#334155" stroke-width="1.4"/>
<line x1="878" y1="66" x2="878" y2="468" stroke="#334155" stroke-width="1.4"/>
<line x1="82" y1="468" x2="878" y2="468" stroke="#334155" stroke-width="1.4"/>
<text class="axis-label" x="480.0" y="520" text-anchor="middle">ctx size</text>
<text class="axis-label" x="22" y="267.0" text-anchor="middle" transform="rotate(-90 22 267.0)">prefill t/s</text>
<text class="axis-label" x="938" y="267.0" text-anchor="middle" transform="rotate(90 938 267.0)">generation t/s</text>
<polyline fill="none" stroke="#2563eb" stroke-width="3" stroke-linecap="round" stroke-linejoin="round" points="133.35,450.15 133.35,450.35 133.35,454.66 133.35,452.40 133.35,448.16 133.35,449.94 133.35,450.74 133.35,450.60 159.03,339.74 159.03,339.49 159.03,339.22 159.03,339.74 159.03,339.75 159.03,339.48 159.03,339.21 159.03,338.69 184.71,319.83 184.71,319.38 184.71,319.15 184.71,319.37 184.71,320.29 184.71,318.94 184.71,319.61 184.71,319.61 210.39,293.69 210.39,294.17 210.39,293.92 210.39,293.44 210.39,294.17 210.39,293.68 210.39,293.92 210.39,293.22 236.06,286.92 236.06,286.52 236.06,287.14 236.06,286.92 236.06,287.75 236.06,287.12 236.06,287.34 236.06,286.71 261.74,297.28 261.74,297.12 261.74,296.97 261.74,296.97 261.74,297.12 261.74,296.81 261.74,296.81 261.74,296.50 287.42,271.19 287.42,271.01 287.42,271.19 287.42,270.68 287.42,270.84 287.42,271.19 287.42,271.19 287.42,271.01 313.10,263.72 313.10,263.40 313.10,263.89 313.10,264.24 313.10,264.24 313.10,263.73 313.10,263.89 313.10,263.55 338.77,259.55 338.77,260.00 338.77,260.16 338.77,260.15 338.77,260.15 338.77,260.00 338.77,259.84 338.77,259.69 364.45,263.56 364.45,263.71 364.45,263.57 364.45,263.70 364.45,263.43 364.45,263.70 364.45,263.70 364.45,263.31 390.13,255.65 390.13,255.51 390.13,255.78 390.13,255.78 390.13,255.65 390.13,255.79 390.13,255.52 390.13,255.23 415.81,263.54 415.81,263.54 415.81,263.42 415.81,263.42 415.81,263.66 415.81,263.20 415.81,263.31 415.81,263.31 441.48,252.37 441.48,252.26 441.48,252.48 441.48,252.38 441.48,252.27 441.48,252.61 441.48,252.16 441.48,252.05 467.16,252.50 467.16,252.50 467.16,252.39 467.16,252.40 467.16,252.28 467.16,252.50 467.16,252.18 467.16,252.40 492.84,251.30 492.84,251.40 492.84,251.69 492.84,251.69 492.84,251.39 492.84,251.50 492.84,251.29 492.84,251.10 518.52,247.17 518.52,247.27 518.52,247.07 518.52,247.27 518.52,247.18 518.52,246.89 518.52,247.07 518.52,246.98 544.19,253.28 544.19,253.28 544.19,253.19 544.19,253.10 544.19,252.94 544.19,253.11 544.19,253.28 544.19,253.11 569.87,252.65 569.87,252.48 569.87,252.73 569.87,252.57 569.87,252.56 569.87,252.65 569.87,252.32 569.87,252.48 595.55,250.00 595.55,249.92 595.55,250.00 595.55,249.84 595.55,249.92 595.55,250.00 595.55,249.84 595.55,249.68 621.23,249.31 621.23,249.32 621.23,249.17 621.23,249.40 621.23,249.39 621.23,249.31 621.23,249.48 621.23,249.24 646.90,258.88 646.90,258.81 646.90,258.82 646.90,258.75 646.90,258.75 646.90,258.88 646.90,258.88 646.90,258.62 672.58,251.68 672.58,251.76 672.58,251.76 672.58,251.62 672.58,250.64 672.58,251.83 672.58,251.56 672.58,251.68 698.26,269.07 698.26,269.13 698.26,269.01 698.26,269.07 698.26,269.02 698.26,268.91 698.26,269.19 698.26,269.19 723.94,249.45 723.94,249.64 723.94,249.58 723.94,249.57 723.94,249.70 723.94,249.70 723.94,249.64 723.94,249.77 749.61,252.83 749.61,252.78 749.61,252.90 749.61,252.77 749.61,252.71 749.61,252.72 749.61,252.60 749.61,252.90 775.29,253.86 775.29,253.86 775.29,253.74 775.29,253.85 775.29,253.80 775.29,253.69 775.29,253.80 775.29,253.74 800.97,253.56 800.97,253.79 800.97,253.67 800.97,253.74 800.97,253.74 800.97,253.89 800.97,253.68 800.97,253.90 826.65,252.40 826.65,252.35 826.65,252.50 826.65,252.45 826.65,252.45 826.65,252.56 826.65,252.55 826.65,252.55 852.32,253.95 852.32,253.94 852.32,253.89 852.32,253.99 852.32,253.99 852.32,253.80 852.32,253.89 852.32,253.99 878.00,395.31 878.00,395.30 878.00,395.31 878.00,395.31 878.00,395.31 878.00,395.30 878.00,395.29 878.00,395.30"/>
<polyline fill="none" stroke="#dc2626" stroke-width="3" stroke-linecap="round" stroke-linejoin="round" points="133.35,254.94 133.35,254.94 133.35,254.94 133.35,254.94 133.35,254.94 133.35,254.94 133.35,254.94 133.35,254.94 159.03,252.53 159.03,252.53 159.03,252.53 159.03,252.53 159.03,252.53 159.03,252.53 159.03,252.53 159.03,252.53 184.71,252.53 184.71,252.53 184.71,252.53 184.71,252.53 184.71,252.53 184.71,252.53 184.71,252.53 184.71,252.53 210.39,252.13 210.39,252.13 210.39,252.13 210.39,252.13 210.39,252.13 210.39,252.13 210.39,252.13 210.39,252.13 236.06,251.32 236.06,251.32 236.06,251.32 236.06,251.32 236.06,251.32 236.06,251.32 236.06,251.32 236.06,251.32 261.74,252.53 261.74,252.53 261.74,252.53 261.74,252.53 261.74,252.53 261.74,252.53 261.74,252.53 261.74,252.53 287.42,250.92 287.42,250.92 287.42,250.92 287.42,250.92 287.42,250.92 287.42,250.92 287.42,250.92 287.42,250.92 313.10,252.53 313.10,252.53 313.10,252.53 313.10,252.53 313.10,252.53 313.10,252.53 313.10,252.53 313.10,252.53 338.77,254.14 338.77,254.14 338.77,254.14 338.77,254.14 338.77,254.14 338.77,254.14 338.77,254.14 338.77,254.14 364.45,253.33 364.45,253.33 364.45,253.33 364.45,253.33 364.45,253.33 364.45,253.33 364.45,253.33 364.45,253.33 390.13,251.32 390.13,251.32 390.13,251.32 390.13,251.32 390.13,251.32 390.13,251.32 390.13,251.32 390.13,251.32 415.81,254.14 415.81,254.14 415.81,254.14 415.81,254.14 415.81,254.14 415.81,254.14 415.81,254.14 415.81,254.14 441.48,251.32 441.48,251.32 441.48,251.32 441.48,251.32 441.48,251.32 441.48,251.32 441.48,251.32 441.48,251.32 467.16,254.14 467.16,254.14 467.16,254.14 467.16,254.14 467.16,254.14 467.16,254.14 467.16,254.14 467.16,254.14 492.84,253.73 492.84,253.73 492.84,253.73 492.84,253.73 492.84,253.73 492.84,253.73 492.84,253.73 492.84,253.73 518.52,252.93 518.52,252.93 518.52,252.93 518.52,252.93 518.52,252.93 518.52,252.93 518.52,252.93 518.52,252.93 544.19,252.13 544.19,252.13 544.19,252.13 544.19,252.13 544.19,252.13 544.19,252.13 544.19,252.13 544.19,252.13 569.87,251.72 569.87,251.72 569.87,251.72 569.87,251.72 569.87,251.72 569.87,251.72 569.87,251.72 569.87,251.72 595.55,251.72 595.55,251.72 595.55,251.72 595.55,251.72 595.55,251.72 595.55,251.72 595.55,251.72 595.55,251.72 621.23,252.13 621.23,252.13 621.23,252.13 621.23,252.13 621.23,252.13 621.23,252.13 621.23,252.13 621.23,252.13 646.90,254.14 646.90,254.14 646.90,254.14 646.90,254.14 646.90,254.14 646.90,254.14 646.90,254.14 646.90,254.14 672.58,253.33 672.58,253.33 672.58,253.33 672.58,253.33 672.58,253.33 672.58,253.33 672.58,253.33 672.58,253.33 698.26,251.32 698.26,251.32 698.26,251.32 698.26,251.32 698.26,251.32 698.26,251.32 698.26,251.32 698.26,251.32 723.94,254.94 723.94,254.94 723.94,254.94 723.94,254.94 723.94,254.94 723.94,254.94 723.94,254.94 723.94,254.94 749.61,251.32 749.61,251.32 749.61,251.32 749.61,251.32 749.61,251.32 749.61,251.32 749.61,251.32 749.61,251.32 775.29,252.13 775.29,252.13 775.29,252.13 775.29,252.13 775.29,252.13 775.29,252.13 775.29,252.13 775.29,252.13 800.97,252.13 800.97,252.13 800.97,252.13 800.97,252.13 800.97,252.13 800.97,252.13 800.97,252.13 800.97,252.13 826.65,251.72 826.65,251.72 826.65,251.72 826.65,251.72 826.65,251.72 826.65,251.72 826.65,251.72 826.65,251.72 852.32,253.73 852.32,253.73 852.32,253.73 852.32,253.73 852.32,253.73 852.32,253.73 852.32,253.73 852.32,253.73 878.00,255.34 878.00,255.34 878.00,255.34 878.00,255.34 878.00,255.34 878.00,255.34 878.00,255.34 878.00,255.34"/>
<rect x="694" y="66" width="176" height="62" rx="6" fill="#ffffff" stroke="#cbd5e1"/>
<rect x="708" y="78" width="12" height="12" fill="#2563eb"/>
<text class="legend" x="730" y="89">prefill</text>
<rect x="708" y="104" width="12" height="12" fill="#dc2626"/>
<text class="legend" x="730" y="115">generation</text>
</svg>
